<svg xmlns="http://www.w3.org/2000/svg" xmlns:xlink="http://www.w3.org/1999/xlink" width="800" zoomAndPan="magnify" viewBox="0 0 600 599.999999" height="800" preserveAspectRatio="xMidYMid meet" version="1.0"><defs><g/></defs><rect x="-60" width="720" fill="#ffffff" y="-60" height="719.999999" fill-opacity="1"/><rect x="-60" width="720" fill="#ffffff" y="-60" height="719.999999" fill-opacity="1"/><g fill="#000000" fill-opacity="1"><g transform="translate(92.728845, 292.345995)"><g><path d="M 10.875 0 L 10.875 -2.765625 C 14.144531 -3.765625 16.382812 -5.898438 17.59375 -9.171875 C 18.800781 -12.441406 19.40625 -18.410156 19.40625 -27.078125 L 19.40625 -122.203125 C 19.40625 -131.015625 18.800781 -137.019531 17.59375 -140.21875 C 16.382812 -143.414062 14.144531 -145.515625 10.875 -146.515625 L 10.875 -149.28125 L 110.046875 -149.28125 L 112.390625 -121.5625 L 110.046875 -120.921875 C 106.347656 -130.304688 101.191406 -136.847656 94.578125 -140.546875 C 87.972656 -144.242188 79.195312 -146.09375 68.25 -146.09375 L 36.890625 -146.09375 L 36.890625 -81.46875 L 64.1875 -81.46875 C 72.289062 -81.46875 78.582031 -82 83.0625 -83.0625 C 87.539062 -84.132812 90.8125 -85.769531 92.875 -87.96875 C 94.9375 -90.175781 96.394531 -92.84375 97.25 -95.96875 L 99.8125 -95.96875 L 99.8125 -63.765625 L 97.25 -63.765625 C 96.394531 -67.035156 94.9375 -69.734375 92.875 -71.859375 C 90.8125 -73.992188 87.539062 -75.59375 83.0625 -76.65625 C 78.582031 -77.726562 72.289062 -78.265625 64.1875 -78.265625 L 36.890625 -78.265625 L 36.890625 -12.796875 C 36.890625 -6.398438 40.085938 -3.203125 46.484375 -3.203125 L 74.21875 -3.203125 C 84.457031 -3.203125 92.914062 -4.976562 99.59375 -8.53125 C 106.28125 -12.082031 111.539062 -18.835938 115.375 -28.796875 L 117.71875 -28.359375 L 116.015625 0 Z M 10.875 0 "/></g></g></g><g fill="#239098" fill-opacity="1"><g transform="translate(218.349053, 292.345995)"><g><path d="M 10.875 0 L 10.875 -2.765625 C 14.144531 -3.765625 16.382812 -5.898438 17.59375 -9.171875 C 18.800781 -12.441406 19.40625 -18.410156 19.40625 -27.078125 L 19.40625 -122.203125 C 19.40625 -131.015625 18.800781 -137.019531 17.59375 -140.21875 C 16.382812 -143.414062 14.144531 -145.515625 10.875 -146.515625 L 10.875 -149.28125 L 45.421875 -149.28125 L 45.421875 -146.515625 C 42.148438 -145.515625 39.910156 -143.414062 38.703125 -140.21875 C 37.492188 -137.019531 36.890625 -131.015625 36.890625 -122.203125 L 36.890625 -80.828125 L 118.15625 -80.828125 L 118.15625 -122.203125 C 118.15625 -131.015625 117.550781 -137.019531 116.34375 -140.21875 C 115.132812 -143.414062 112.894531 -145.515625 109.625 -146.515625 L 109.625 -149.28125 L 144.171875 -149.28125 L 144.171875 -146.515625 C 140.898438 -145.515625 138.660156 -143.414062 137.453125 -140.21875 C 136.242188 -137.019531 135.640625 -131.015625 135.640625 -122.203125 L 135.640625 -27.078125 C 135.640625 -18.410156 136.242188 -12.441406 137.453125 -9.171875 C 138.660156 -5.898438 140.898438 -3.765625 144.171875 -2.765625 L 144.171875 0 L 109.625 0 L 109.625 -2.765625 C 112.894531 -3.765625 115.132812 -5.898438 116.34375 -9.171875 C 117.550781 -12.441406 118.15625 -18.410156 118.15625 -27.078125 L 118.15625 -77.421875 L 36.890625 -77.421875 L 36.890625 -27.078125 C 36.890625 -18.410156 37.492188 -12.441406 38.703125 -9.171875 C 39.910156 -5.898438 42.148438 -3.765625 45.421875 -2.765625 L 45.421875 0 Z M 10.875 0 "/></g></g></g><g fill="#000000" fill-opacity="1"><g transform="translate(373.191609, 292.345995)"><g><path d="M 91.484375 2.125 C 75.140625 2.125 60.957031 -0.785156 48.9375 -6.609375 C 36.925781 -12.441406 27.613281 -20.863281 21 -31.875 C 14.394531 -42.894531 11.09375 -56.15625 11.09375 -71.65625 C 11.09375 -83.03125 13.148438 -93.515625 17.265625 -103.109375 C 21.390625 -112.710938 27.253906 -121.101562 34.859375 -128.28125 C 42.472656 -135.457031 51.503906 -141 61.953125 -144.90625 C 72.398438 -148.820312 83.878906 -150.78125 96.390625 -150.78125 C 102.503906 -150.78125 108.722656 -150.242188 115.046875 -149.171875 C 121.378906 -148.109375 127.175781 -146.796875 132.4375 -145.234375 C 137.695312 -143.671875 141.675781 -141.960938 144.375 -140.109375 L 145.234375 -114.734375 L 143.09375 -114.3125 C 138.976562 -123.976562 132.117188 -131.796875 122.515625 -137.765625 C 112.921875 -143.742188 101.796875 -146.734375 89.140625 -146.734375 C 77.910156 -146.734375 67.742188 -144.242188 58.640625 -139.265625 C 49.546875 -134.285156 42.332031 -126.890625 37 -117.078125 C 31.664062 -107.273438 29 -95.117188 29 -80.609375 C 29 -70.660156 30.457031 -60.992188 33.375 -51.609375 C 36.289062 -42.222656 40.660156 -33.796875 46.484375 -26.328125 C 52.316406 -18.867188 59.5 -12.96875 68.03125 -8.625 C 76.5625 -4.289062 86.375 -2.125 97.46875 -2.125 C 108.976562 -2.125 119.035156 -5.109375 127.640625 -11.078125 C 136.242188 -17.054688 142.609375 -25.804688 146.734375 -37.328125 L 149.078125 -37.109375 L 145.65625 -9.390625 C 140.6875 -6.679688 133.398438 -4.082031 123.796875 -1.59375 C 114.203125 0.882812 103.429688 2.125 91.484375 2.125 Z M 91.484375 2.125 "/></g></g></g><g fill="#000000" fill-opacity="1"><g transform="translate(15.856344, 365.928847)"><g><path d="M 2.4375 0 L 2.4375 -0.625 C 3.164062 -0.84375 3.664062 -1.316406 3.9375 -2.046875 C 4.207031 -2.773438 4.34375 -4.113281 4.34375 -6.0625 L 4.34375 -27.328125 C 4.34375 -29.304688 4.207031 -30.648438 3.9375 -31.359375 C 3.664062 -32.078125 3.164062 -32.546875 2.4375 -32.765625 L 2.4375 -33.390625 L 24.609375 -33.390625 L 25.140625 -27.1875 L 24.609375 -27.046875 C 23.785156 -29.148438 22.632812 -30.613281 21.15625 -31.4375 C 19.675781 -32.257812 17.710938 -32.671875 15.265625 -32.671875 L 8.25 -32.671875 L 8.25 -18.21875 L 14.359375 -18.21875 C 16.171875 -18.21875 17.578125 -18.335938 18.578125 -18.578125 C 19.578125 -18.816406 20.304688 -19.179688 20.765625 -19.671875 C 21.234375 -20.171875 21.5625 -20.769531 21.75 -21.46875 L 22.328125 -21.46875 L 22.328125 -14.265625 L 21.75 -14.265625 C 21.5625 -14.992188 21.234375 -15.597656 20.765625 -16.078125 C 20.304688 -16.554688 19.578125 -16.910156 18.578125 -17.140625 C 17.578125 -17.378906 16.171875 -17.5 14.359375 -17.5 L 8.25 -17.5 L 8.25 -2.859375 C 8.25 -1.429688 8.96875 -0.71875 10.40625 -0.71875 L 16.59375 -0.71875 C 18.882812 -0.71875 20.773438 -1.113281 22.265625 -1.90625 C 23.765625 -2.695312 24.945312 -4.207031 25.8125 -6.4375 L 26.328125 -6.34375 L 25.953125 0 Z M 2.4375 0 "/></g></g></g><g fill="#000000" fill-opacity="1"><g transform="translate(43.952781, 365.928847)"><g><path d="M 20.21875 0 L 20.21875 -0.625 C 20.957031 -0.84375 21.195312 -1.242188 20.9375 -1.828125 C 20.6875 -2.421875 20.050781 -3.546875 19.03125 -5.203125 L 12.546875 -15.890625 L 5.34375 -5.0625 C 4.414062 -3.65625 3.925781 -2.601562 3.875 -1.90625 C 3.832031 -1.207031 4.289062 -0.78125 5.25 -0.625 L 5.25 0 L -0.1875 0 L -0.1875 -0.625 C 0.445312 -0.84375 1.101562 -1.226562 1.78125 -1.78125 C 2.46875 -2.34375 3.351562 -3.4375 4.4375 -5.0625 L 12.109375 -16.59375 L 5.109375 -28.1875 C 4.117188 -29.875 3.3125 -31.003906 2.6875 -31.578125 C 2.070312 -32.148438 1.492188 -32.546875 0.953125 -32.765625 L 0.953125 -33.390625 L 8.34375 -33.390625 L 8.34375 -32.765625 C 7.613281 -32.546875 7.382812 -32.148438 7.65625 -31.578125 C 7.925781 -31.003906 8.570312 -29.875 9.59375 -28.1875 L 14.890625 -19.375 L 20.84375 -28.328125 C 21.769531 -29.734375 22.253906 -30.785156 22.296875 -31.484375 C 22.347656 -32.179688 21.894531 -32.609375 20.9375 -32.765625 L 20.9375 -33.390625 L 26.421875 -33.390625 L 26.421875 -32.765625 C 25.753906 -32.546875 25.078125 -32.15625 24.390625 -31.59375 C 23.710938 -31.039062 22.832031 -29.953125 21.75 -28.328125 L 15.359375 -18.65625 L 23.46875 -5.203125 C 24.488281 -3.546875 25.304688 -2.421875 25.921875 -1.828125 C 26.546875 -1.242188 27.113281 -0.84375 27.625 -0.625 L 27.625 0 Z M 20.21875 0 "/></g></g></g><g fill="#000000" fill-opacity="1"><g transform="translate(71.285981, 365.928847)"><g><path d="M 2.4375 0 L 2.4375 -0.625 C 3.164062 -0.84375 3.664062 -1.316406 3.9375 -2.046875 C 4.207031 -2.773438 4.34375 -4.113281 4.34375 -6.0625 L 4.34375 -27.328125 C 4.34375 -29.304688 4.207031 -30.648438 3.9375 -31.359375 C 3.664062 -32.078125 3.164062 -32.546875 2.4375 -32.765625 L 2.4375 -33.390625 L 12.109375 -33.390625 C 15.421875 -33.390625 18.019531 -32.925781 19.90625 -32 C 21.800781 -31.082031 23.144531 -29.90625 23.9375 -28.46875 C 24.738281 -27.039062 25.140625 -25.550781 25.140625 -24 C 25.140625 -20.8125 24 -18.21875 21.71875 -16.21875 C 19.445312 -14.21875 16.085938 -13.21875 11.640625 -13.21875 L 8.25 -13.21875 L 8.25 -6.0625 C 8.25 -4.113281 8.382812 -2.773438 8.65625 -2.046875 C 8.925781 -1.316406 9.425781 -0.84375 10.15625 -0.625 L 10.15625 0 Z M 8.25 -13.921875 L 11.546875 -13.921875 C 14.597656 -13.921875 16.925781 -14.71875 18.53125 -16.3125 C 20.132812 -17.90625 20.9375 -20.097656 20.9375 -22.890625 C 20.9375 -24.609375 20.578125 -26.207031 19.859375 -27.6875 C 19.148438 -29.164062 18.015625 -30.363281 16.453125 -31.28125 C 14.898438 -32.207031 12.832031 -32.671875 10.25 -32.671875 C 9.9375 -32.671875 9.597656 -32.660156 9.234375 -32.640625 C 8.867188 -32.628906 8.539062 -32.609375 8.25 -32.578125 Z M 8.25 -13.921875 "/></g></g></g><g fill="#000000" fill-opacity="1"><g transform="translate(97.617447, 365.928847)"><g><path d="M 2.4375 0 L 2.4375 -0.625 C 3.164062 -0.84375 3.664062 -1.316406 3.9375 -2.046875 C 4.207031 -2.773438 4.34375 -4.113281 4.34375 -6.0625 L 4.34375 -27.328125 C 4.34375 -29.304688 4.207031 -30.648438 3.9375 -31.359375 C 3.664062 -32.078125 3.164062 -32.546875 2.4375 -32.765625 L 2.4375 -33.390625 L 24.609375 -33.390625 L 25.140625 -27.1875 L 24.609375 -27.046875 C 23.785156 -29.148438 22.632812 -30.613281 21.15625 -31.4375 C 19.675781 -32.257812 17.710938 -32.671875 15.265625 -32.671875 L 8.25 -32.671875 L 8.25 -18.21875 L 14.359375 -18.21875 C 16.171875 -18.21875 17.578125 -18.335938 18.578125 -18.578125 C 19.578125 -18.816406 20.304688 -19.179688 20.765625 -19.671875 C 21.234375 -20.171875 21.5625 -20.769531 21.75 -21.46875 L 22.328125 -21.46875 L 22.328125 -14.265625 L 21.75 -14.265625 C 21.5625 -14.992188 21.234375 -15.597656 20.765625 -16.078125 C 20.304688 -16.554688 19.578125 -16.910156 18.578125 -17.140625 C 17.578125 -17.378906 16.171875 -17.5 14.359375 -17.5 L 8.25 -17.5 L 8.25 -2.859375 C 8.25 -1.429688 8.96875 -0.71875 10.40625 -0.71875 L 16.59375 -0.71875 C 18.882812 -0.71875 20.773438 -1.113281 22.265625 -1.90625 C 23.765625 -2.695312 24.945312 -4.207031 25.8125 -6.4375 L 26.328125 -6.34375 L 25.953125 0 Z M 2.4375 0 "/></g></g></g><g fill="#000000" fill-opacity="1"><g transform="translate(125.713884, 365.928847)"><g><path d="M 26.71875 0.328125 C 25.507812 0.328125 24.550781 0.0351562 23.84375 -0.546875 C 23.144531 -1.140625 22.535156 -2 22.015625 -3.125 C 21.492188 -4.25 20.878906 -5.640625 20.171875 -7.296875 C 19.472656 -8.953125 18.882812 -10.398438 18.40625 -11.640625 C 17.9375 -12.878906 17.421875 -13.910156 16.859375 -14.734375 C 16.304688 -15.566406 15.597656 -16.1875 14.734375 -16.59375 C 13.878906 -17.007812 12.738281 -17.21875 11.3125 -17.21875 L 8.25 -17.21875 L 8.25 -6.0625 C 8.25 -4.113281 8.382812 -2.773438 8.65625 -2.046875 C 8.925781 -1.316406 9.425781 -0.84375 10.15625 -0.625 L 10.15625 0 L 2.4375 0 L 2.4375 -0.625 C 3.164062 -0.84375 3.664062 -1.316406 3.9375 -2.046875 C 4.207031 -2.773438 4.34375 -4.113281 4.34375 -6.0625 L 4.34375 -27.328125 C 4.34375 -29.304688 4.207031 -30.648438 3.9375 -31.359375 C 3.664062 -32.078125 3.164062 -32.546875 2.4375 -32.765625 L 2.4375 -33.390625 L 11.828125 -33.390625 C 15.078125 -33.390625 17.609375 -33.0625 19.421875 -32.40625 C 21.234375 -31.757812 22.507812 -30.878906 23.25 -29.765625 C 24 -28.648438 24.375 -27.378906 24.375 -25.953125 C 24.375 -23.722656 23.578125 -21.820312 21.984375 -20.25 C 20.398438 -18.675781 18.050781 -17.710938 14.9375 -17.359375 C 16.394531 -17.171875 17.582031 -16.84375 18.5 -16.375 C 19.425781 -15.914062 20.191406 -15.296875 20.796875 -14.515625 C 21.398438 -13.742188 21.941406 -12.800781 22.421875 -11.6875 C 22.898438 -10.570312 23.425781 -9.285156 24 -7.828125 C 24.757812 -5.921875 25.398438 -4.441406 25.921875 -3.390625 C 26.453125 -2.335938 26.9375 -1.597656 27.375 -1.171875 C 27.820312 -0.742188 28.316406 -0.53125 28.859375 -0.53125 C 29.015625 -0.53125 29.148438 -0.53125 29.265625 -0.53125 C 29.378906 -0.53125 29.5 -0.546875 29.625 -0.578125 L 29.625 0 C 29.269531 0.125 28.8125 0.207031 28.25 0.25 C 27.695312 0.300781 27.1875 0.328125 26.71875 0.328125 Z M 8.25 -17.9375 L 12.265625 -17.9375 C 14.992188 -17.9375 17.019531 -18.578125 18.34375 -19.859375 C 19.664062 -21.148438 20.328125 -22.816406 20.328125 -24.859375 C 20.328125 -26.285156 20 -27.585938 19.34375 -28.765625 C 18.6875 -29.941406 17.632812 -30.882812 16.1875 -31.59375 C 14.75 -32.3125 12.851562 -32.671875 10.5 -32.671875 C 10.144531 -32.671875 9.773438 -32.660156 9.390625 -32.640625 C 9.015625 -32.628906 8.632812 -32.609375 8.25 -32.578125 Z M 8.25 -17.9375 "/></g></g></g><g fill="#000000" fill-opacity="1"><g transform="translate(154.907457, 365.928847)"><g><path d="M 9.5 0 L 9.5 -0.625 C 10.226562 -0.84375 10.726562 -1.316406 11 -2.046875 C 11.269531 -2.773438 11.40625 -4.113281 11.40625 -6.0625 L 11.40625 -32.625 L 9.0625 -32.625 C 6.9375 -32.625 5.316406 -32.289062 4.203125 -31.625 C 3.085938 -30.957031 2.113281 -29.765625 1.28125 -28.046875 L 0.765625 -28.140625 L 1.046875 -33.390625 L 25.609375 -33.390625 L 25.90625 -28.140625 L 25.375 -28.046875 C 24.582031 -29.765625 23.628906 -30.957031 22.515625 -31.625 C 21.398438 -32.289062 19.765625 -32.625 17.609375 -32.625 L 15.359375 -32.625 L 15.359375 -6.0625 C 15.359375 -4.113281 15.492188 -2.773438 15.765625 -2.046875 C 16.035156 -1.316406 16.535156 -0.84375 17.265625 -0.625 L 17.265625 0 Z M 9.5 0 "/></g></g></g><g fill="#000000" fill-opacity="1"><g transform="translate(181.620541, 365.928847)"><g><path d="M 13.59375 0.484375 C 11.082031 0.484375 8.820312 0.117188 6.8125 -0.609375 C 4.8125 -1.347656 3.253906 -2.113281 2.140625 -2.90625 L 1.90625 -9.546875 L 2.4375 -9.640625 C 3.070312 -7.984375 3.90625 -6.445312 4.9375 -5.03125 C 5.96875 -3.613281 7.28125 -2.484375 8.875 -1.640625 C 10.46875 -0.796875 12.359375 -0.375 14.546875 -0.375 C 15.816406 -0.375 16.992188 -0.632812 18.078125 -1.15625 C 19.160156 -1.6875 20.023438 -2.425781 20.671875 -3.375 C 21.328125 -4.332031 21.65625 -5.445312 21.65625 -6.71875 C 21.65625 -7.925781 21.335938 -8.972656 20.703125 -9.859375 C 20.066406 -10.753906 19.238281 -11.535156 18.21875 -12.203125 C 17.207031 -12.878906 16.132812 -13.460938 15 -13.953125 C 13.875 -14.441406 12.800781 -14.894531 11.78125 -15.3125 C 9.90625 -16.070312 8.273438 -16.84375 6.890625 -17.625 C 5.503906 -18.40625 4.4375 -19.34375 3.6875 -20.4375 C 2.945312 -21.539062 2.578125 -22.929688 2.578125 -24.609375 C 2.578125 -26.484375 3.0625 -28.097656 4.03125 -29.453125 C 5 -30.804688 6.359375 -31.851562 8.109375 -32.59375 C 9.859375 -33.34375 11.894531 -33.71875 14.21875 -33.71875 C 16.375 -33.71875 18.234375 -33.476562 19.796875 -33 C 21.359375 -32.53125 22.597656 -32.039062 23.515625 -31.53125 L 23.703125 -26 L 23.234375 -25.859375 C 22.335938 -27.921875 21.039062 -29.617188 19.34375 -30.953125 C 17.644531 -32.296875 15.425781 -32.96875 12.6875 -32.96875 C 11.414062 -32.96875 10.226562 -32.71875 9.125 -32.21875 C 8.03125 -31.726562 7.15625 -31.019531 6.5 -30.09375 C 5.851562 -29.175781 5.53125 -28.035156 5.53125 -26.671875 C 5.53125 -25.554688 5.800781 -24.582031 6.34375 -23.75 C 6.882812 -22.925781 7.597656 -22.210938 8.484375 -21.609375 C 9.378906 -21.003906 10.347656 -20.46875 11.390625 -20 C 12.441406 -19.539062 13.476562 -19.109375 14.5 -18.703125 C 16.28125 -18.003906 17.945312 -17.253906 19.5 -16.453125 C 21.0625 -15.660156 22.328125 -14.691406 23.296875 -13.546875 C 24.273438 -12.398438 24.765625 -10.921875 24.765625 -9.109375 C 24.765625 -7.140625 24.222656 -5.429688 23.140625 -3.984375 C 22.054688 -2.535156 20.660156 -1.425781 18.953125 -0.65625 C 17.253906 0.101562 15.46875 0.484375 13.59375 0.484375 Z M 13.59375 0.484375 "/></g></g></g><g fill="#000000" fill-opacity="1"><g transform="translate(207.9043, 365.928847)"><g/></g></g><g fill="#239098" fill-opacity="1"><g transform="translate(217.921757, 365.928847)"><g><path d="M 2.4375 0 L 2.4375 -0.625 C 3.164062 -0.84375 3.664062 -1.316406 3.9375 -2.046875 C 4.207031 -2.773438 4.34375 -4.113281 4.34375 -6.0625 L 4.34375 -27.328125 C 4.34375 -29.304688 4.207031 -30.648438 3.9375 -31.359375 C 3.664062 -32.078125 3.164062 -32.546875 2.4375 -32.765625 L 2.4375 -33.390625 L 10.15625 -33.390625 L 10.15625 -32.765625 C 9.425781 -32.546875 8.925781 -32.078125 8.65625 -31.359375 C 8.382812 -30.648438 8.25 -29.304688 8.25 -27.328125 L 8.25 -18.078125 L 26.421875 -18.078125 L 26.421875 -27.328125 C 26.421875 -29.304688 26.285156 -30.648438 26.015625 -31.359375 C 25.742188 -32.078125 25.242188 -32.546875 24.515625 -32.765625 L 24.515625 -33.390625 L 32.25 -33.390625 L 32.25 -32.765625 C 31.519531 -32.546875 31.019531 -32.078125 30.75 -31.359375 C 30.476562 -30.648438 30.34375 -29.304688 30.34375 -27.328125 L 30.34375 -6.0625 C 30.34375 -4.113281 30.476562 -2.773438 30.75 -2.046875 C 31.019531 -1.316406 31.519531 -0.84375 32.25 -0.625 L 32.25 0 L 24.515625 0 L 24.515625 -0.625 C 25.242188 -0.84375 25.742188 -1.316406 26.015625 -2.046875 C 26.285156 -2.773438 26.421875 -4.113281 26.421875 -6.0625 L 26.421875 -17.3125 L 8.25 -17.3125 L 8.25 -6.0625 C 8.25 -4.113281 8.382812 -2.773438 8.65625 -2.046875 C 8.925781 -1.316406 9.425781 -0.84375 10.15625 -0.625 L 10.15625 0 Z M 2.4375 0 "/></g></g></g><g fill="#239098" fill-opacity="1"><g transform="translate(252.553354, 365.928847)"><g><path d="M 17.21875 0.484375 C 15.5 0.484375 13.835938 0.257812 12.234375 -0.1875 C 10.628906 -0.632812 9.191406 -1.347656 7.921875 -2.328125 C 6.648438 -3.316406 5.628906 -4.628906 4.859375 -6.265625 C 4.097656 -7.910156 3.71875 -9.925781 3.71875 -12.3125 L 3.71875 -27.328125 C 3.71875 -29.304688 3.582031 -30.648438 3.3125 -31.359375 C 3.039062 -32.078125 2.539062 -32.546875 1.8125 -32.765625 L 1.8125 -33.390625 L 9.546875 -33.390625 L 9.546875 -32.765625 C 8.835938 -32.546875 8.335938 -32.078125 8.046875 -31.359375 C 7.765625 -30.648438 7.625 -29.304688 7.625 -27.328125 L 7.625 -12.59375 C 7.625 -9.632812 8.117188 -7.269531 9.109375 -5.5 C 10.097656 -3.738281 11.429688 -2.46875 13.109375 -1.6875 C 14.796875 -0.914062 16.675781 -0.53125 18.75 -0.53125 C 19.769531 -0.53125 20.832031 -0.71875 21.9375 -1.09375 C 23.050781 -1.476562 24.09375 -2.128906 25.0625 -3.046875 C 26.03125 -3.972656 26.816406 -5.210938 27.421875 -6.765625 C 28.023438 -8.328125 28.328125 -10.269531 28.328125 -12.59375 L 28.328125 -25.421875 C 28.328125 -27.234375 28.203125 -28.640625 27.953125 -29.640625 C 27.703125 -30.648438 27.335938 -31.375 26.859375 -31.8125 C 26.378906 -32.257812 25.789062 -32.578125 25.09375 -32.765625 L 25.09375 -33.390625 L 31 -33.390625 L 31 -32.765625 C 30.300781 -32.546875 29.804688 -32.078125 29.515625 -31.359375 C 29.234375 -30.648438 29.09375 -29.304688 29.09375 -27.328125 L 29.09375 -12.734375 C 29.09375 -9.554688 28.5625 -6.992188 27.5 -5.046875 C 26.4375 -3.109375 25.015625 -1.703125 23.234375 -0.828125 C 21.453125 0.046875 19.445312 0.484375 17.21875 0.484375 Z M 17.21875 0.484375 "/></g></g></g><g fill="#239098" fill-opacity="1"><g transform="translate(284.942958, 365.928847)"><g><path d="M 2.390625 0 L 2.390625 -0.625 C 3.117188 -0.84375 3.617188 -1.316406 3.890625 -2.046875 C 4.160156 -2.773438 4.296875 -4.113281 4.296875 -6.0625 L 4.296875 -25.421875 C 4.296875 -27.234375 4.179688 -28.640625 3.953125 -29.640625 C 3.734375 -30.648438 3.410156 -31.375 2.984375 -31.8125 C 2.554688 -32.257812 2.023438 -32.578125 1.390625 -32.765625 L 1.390625 -33.390625 L 7.15625 -33.390625 L 19.609375 -12.828125 L 31.8125 -33.390625 L 37.203125 -33.390625 L 37.203125 -32.765625 C 36.566406 -32.578125 36.035156 -32.257812 35.609375 -31.8125 C 35.179688 -31.375 34.851562 -30.648438 34.625 -29.640625 C 34.40625 -28.640625 34.296875 -27.234375 34.296875 -25.421875 L 34.296875 -6.0625 C 34.296875 -4.113281 34.429688 -2.773438 34.703125 -2.046875 C 34.972656 -1.316406 35.472656 -0.84375 36.203125 -0.625 L 36.203125 0 L 28.484375 0 L 28.484375 -0.625 C 29.210938 -0.84375 29.710938 -1.316406 29.984375 -2.046875 C 30.253906 -2.773438 30.390625 -4.113281 30.390625 -6.0625 L 30.390625 -29.53125 L 18.265625 -9.0625 L 17.359375 -9.0625 L 5.15625 -29.140625 L 5.15625 -7.96875 C 5.15625 -6.15625 5.28125 -4.753906 5.53125 -3.765625 C 5.789062 -2.785156 6.15625 -2.0625 6.625 -1.59375 C 7.101562 -1.132812 7.691406 -0.8125 8.390625 -0.625 L 8.390625 0 Z M 2.390625 0 "/></g></g></g><g fill="#239098" fill-opacity="1"><g transform="translate(324.583253, 365.928847)"><g><path d="M -0.8125 0 L -0.8125 -0.625 C -0.144531 -0.84375 0.503906 -1.273438 1.140625 -1.921875 C 1.773438 -2.578125 2.460938 -3.8125 3.203125 -5.625 L 12.59375 -28.90625 C 12.875 -29.664062 12.84375 -30.414062 12.5 -31.15625 L 12.0625 -32.15625 L 15.640625 -33.78125 L 27.375 -5.578125 C 28.113281 -3.796875 28.773438 -2.578125 29.359375 -1.921875 C 29.953125 -1.273438 30.5 -0.84375 31 -0.625 L 31 0 L 23.609375 0 L 23.609375 -0.625 C 24.335938 -0.84375 24.640625 -1.273438 24.515625 -1.921875 C 24.390625 -2.578125 23.945312 -3.796875 23.1875 -5.578125 L 20.28125 -12.59375 L 6.828125 -12.59375 L 4 -5.625 C 2.789062 -2.601562 2.984375 -0.9375 4.578125 -0.625 L 4.578125 0 Z M 7.109375 -13.3125 L 19.984375 -13.3125 L 13.453125 -29 Z M 7.109375 -13.3125 "/></g></g></g><g fill="#239098" fill-opacity="1"><g transform="translate(355.160192, 365.928847)"><g><path d="M 27.625 0.375 L 5.15625 -28.859375 L 5.15625 -7.96875 C 5.15625 -6.15625 5.28125 -4.753906 5.53125 -3.765625 C 5.789062 -2.785156 6.164062 -2.0625 6.65625 -1.59375 C 7.144531 -1.132812 7.738281 -0.8125 8.4375 -0.625 L 8.4375 0 L 2.484375 0 L 2.484375 -0.625 C 3.210938 -0.84375 3.710938 -1.316406 3.984375 -2.046875 C 4.253906 -2.773438 4.390625 -4.113281 4.390625 -6.0625 L 4.390625 -27.328125 C 4.390625 -29.304688 4.210938 -30.648438 3.859375 -31.359375 C 3.515625 -32.078125 2.863281 -32.546875 1.90625 -32.765625 L 1.90625 -33.390625 L 6.578125 -33.390625 L 27.421875 -6.390625 L 27.421875 -25.421875 C 27.421875 -27.234375 27.296875 -28.640625 27.046875 -29.640625 C 26.796875 -30.648438 26.429688 -31.375 25.953125 -31.8125 C 25.472656 -32.257812 24.867188 -32.578125 24.140625 -32.765625 L 24.140625 -33.390625 L 30.140625 -33.390625 L 30.140625 -32.765625 C 29.410156 -32.546875 28.910156 -32.078125 28.640625 -31.359375 C 28.367188 -30.648438 28.234375 -29.304688 28.234375 -27.328125 L 28.234375 0.375 Z M 27.625 0.375 "/></g></g></g><g fill="#239098" fill-opacity="1"><g transform="translate(387.215885, 365.928847)"><g/></g></g><g fill="#000000" fill-opacity="1"><g transform="translate(397.244025, 365.928847)"><g><path d="M 20.46875 0.484375 C 16.8125 0.484375 13.640625 -0.164062 10.953125 -1.46875 C 8.265625 -2.78125 6.179688 -4.664062 4.703125 -7.125 C 3.222656 -9.59375 2.484375 -12.5625 2.484375 -16.03125 C 2.484375 -18.570312 2.941406 -20.914062 3.859375 -23.0625 C 4.785156 -25.207031 6.097656 -27.082031 7.796875 -28.6875 C 9.492188 -30.300781 11.507812 -31.539062 13.84375 -32.40625 C 16.1875 -33.28125 18.757812 -33.71875 21.5625 -33.71875 C 22.925781 -33.71875 24.316406 -33.597656 25.734375 -33.359375 C 27.148438 -33.128906 28.445312 -32.835938 29.625 -32.484375 C 30.800781 -32.140625 31.691406 -31.757812 32.296875 -31.34375 L 32.484375 -25.671875 L 32.015625 -25.5625 C 31.085938 -27.726562 29.550781 -29.476562 27.40625 -30.8125 C 25.257812 -32.144531 22.769531 -32.8125 19.9375 -32.8125 C 17.425781 -32.8125 15.148438 -32.253906 13.109375 -31.140625 C 11.078125 -30.035156 9.460938 -28.382812 8.265625 -26.1875 C 7.078125 -23.988281 6.484375 -21.269531 6.484375 -18.03125 C 6.484375 -15.800781 6.804688 -13.632812 7.453125 -11.53125 C 8.109375 -9.4375 9.085938 -7.554688 10.390625 -5.890625 C 11.703125 -4.222656 13.3125 -2.90625 15.21875 -1.9375 C 17.125 -0.96875 19.316406 -0.484375 21.796875 -0.484375 C 24.378906 -0.484375 26.628906 -1.148438 28.546875 -2.484375 C 30.472656 -3.816406 31.894531 -5.769531 32.8125 -8.34375 L 33.34375 -8.296875 L 32.578125 -2.09375 C 31.460938 -1.488281 29.832031 -0.90625 27.6875 -0.34375 C 25.539062 0.207031 23.132812 0.484375 20.46875 0.484375 Z M 20.46875 0.484375 "/></g></g></g><g fill="#000000" fill-opacity="1"><g transform="translate(432.591152, 365.928847)"><g><path d="M -0.8125 0 L -0.8125 -0.625 C -0.144531 -0.84375 0.503906 -1.273438 1.140625 -1.921875 C 1.773438 -2.578125 2.460938 -3.8125 3.203125 -5.625 L 12.59375 -28.90625 C 12.875 -29.664062 12.84375 -30.414062 12.5 -31.15625 L 12.0625 -32.15625 L 15.640625 -33.78125 L 27.375 -5.578125 C 28.113281 -3.796875 28.773438 -2.578125 29.359375 -1.921875 C 29.953125 -1.273438 30.5 -0.84375 31 -0.625 L 31 0 L 23.609375 0 L 23.609375 -0.625 C 24.335938 -0.84375 24.640625 -1.273438 24.515625 -1.921875 C 24.390625 -2.578125 23.945312 -3.796875 23.1875 -5.578125 L 20.28125 -12.59375 L 6.828125 -12.59375 L 4 -5.625 C 2.789062 -2.601562 2.984375 -0.9375 4.578125 -0.625 L 4.578125 0 Z M 7.109375 -13.3125 L 19.984375 -13.3125 L 13.453125 -29 Z M 7.109375 -13.3125 "/></g></g></g><g fill="#000000" fill-opacity="1"><g transform="translate(463.16809, 365.928847)"><g><path d="M 2.4375 0 L 2.4375 -0.625 C 3.164062 -0.84375 3.664062 -1.316406 3.9375 -2.046875 C 4.207031 -2.773438 4.34375 -4.113281 4.34375 -6.0625 L 4.34375 -27.328125 C 4.34375 -29.304688 4.207031 -30.648438 3.9375 -31.359375 C 3.664062 -32.078125 3.164062 -32.546875 2.4375 -32.765625 L 2.4375 -33.390625 L 12.109375 -33.390625 C 15.421875 -33.390625 18.019531 -32.925781 19.90625 -32 C 21.800781 -31.082031 23.144531 -29.90625 23.9375 -28.46875 C 24.738281 -27.039062 25.140625 -25.550781 25.140625 -24 C 25.140625 -20.8125 24 -18.21875 21.71875 -16.21875 C 19.445312 -14.21875 16.085938 -13.21875 11.640625 -13.21875 L 8.25 -13.21875 L 8.25 -6.0625 C 8.25 -4.113281 8.382812 -2.773438 8.65625 -2.046875 C 8.925781 -1.316406 9.425781 -0.84375 10.15625 -0.625 L 10.15625 0 Z M 8.25 -13.921875 L 11.546875 -13.921875 C 14.597656 -13.921875 16.925781 -14.71875 18.53125 -16.3125 C 20.132812 -17.90625 20.9375 -20.097656 20.9375 -22.890625 C 20.9375 -24.609375 20.578125 -26.207031 19.859375 -27.6875 C 19.148438 -29.164062 18.015625 -30.363281 16.453125 -31.28125 C 14.898438 -32.207031 12.832031 -32.671875 10.25 -32.671875 C 9.9375 -32.671875 9.597656 -32.660156 9.234375 -32.640625 C 8.867188 -32.628906 8.539062 -32.609375 8.25 -32.578125 Z M 8.25 -13.921875 "/></g></g></g><g fill="#000000" fill-opacity="1"><g transform="translate(489.499556, 365.928847)"><g><path d="M 2.4375 0 L 2.4375 -0.625 C 3.164062 -0.84375 3.664062 -1.316406 3.9375 -2.046875 C 4.207031 -2.773438 4.34375 -4.113281 4.34375 -6.0625 L 4.34375 -27.328125 C 4.34375 -29.304688 4.207031 -30.648438 3.9375 -31.359375 C 3.664062 -32.078125 3.164062 -32.546875 2.4375 -32.765625 L 2.4375 -33.390625 L 10.15625 -33.390625 L 10.15625 -32.765625 C 9.425781 -32.546875 8.925781 -32.078125 8.65625 -31.359375 C 8.382812 -30.648438 8.25 -29.304688 8.25 -27.328125 L 8.25 -6.0625 C 8.25 -4.113281 8.382812 -2.773438 8.65625 -2.046875 C 8.925781 -1.316406 9.425781 -0.84375 10.15625 -0.625 L 10.15625 0 Z M 2.4375 0 "/></g></g></g><g fill="#000000" fill-opacity="1"><g transform="translate(502.092867, 365.928847)"><g><path d="M 9.5 0 L 9.5 -0.625 C 10.226562 -0.84375 10.726562 -1.316406 11 -2.046875 C 11.269531 -2.773438 11.40625 -4.113281 11.40625 -6.0625 L 11.40625 -32.625 L 9.0625 -32.625 C 6.9375 -32.625 5.316406 -32.289062 4.203125 -31.625 C 3.085938 -30.957031 2.113281 -29.765625 1.28125 -28.046875 L 0.765625 -28.140625 L 1.046875 -33.390625 L 25.609375 -33.390625 L 25.90625 -28.140625 L 25.375 -28.046875 C 24.582031 -29.765625 23.628906 -30.957031 22.515625 -31.625 C 21.398438 -32.289062 19.765625 -32.625 17.609375 -32.625 L 15.359375 -32.625 L 15.359375 -6.0625 C 15.359375 -4.113281 15.492188 -2.773438 15.765625 -2.046875 C 16.035156 -1.316406 16.535156 -0.84375 17.265625 -0.625 L 17.265625 0 Z M 9.5 0 "/></g></g></g><g fill="#000000" fill-opacity="1"><g transform="translate(528.805951, 365.928847)"><g><path d="M -0.8125 0 L -0.8125 -0.625 C -0.144531 -0.84375 0.503906 -1.273438 1.140625 -1.921875 C 1.773438 -2.578125 2.460938 -3.8125 3.203125 -5.625 L 12.59375 -28.90625 C 12.875 -29.664062 12.84375 -30.414062 12.5 -31.15625 L 12.0625 -32.15625 L 15.640625 -33.78125 L 27.375 -5.578125 C 28.113281 -3.796875 28.773438 -2.578125 29.359375 -1.921875 C 29.953125 -1.273438 30.5 -0.84375 31 -0.625 L 31 0 L 23.609375 0 L 23.609375 -0.625 C 24.335938 -0.84375 24.640625 -1.273438 24.515625 -1.921875 C 24.390625 -2.578125 23.945312 -3.796875 23.1875 -5.578125 L 20.28125 -12.59375 L 6.828125 -12.59375 L 4 -5.625 C 2.789062 -2.601562 2.984375 -0.9375 4.578125 -0.625 L 4.578125 0 Z M 7.109375 -13.3125 L 19.984375 -13.3125 L 13.453125 -29 Z M 7.109375 -13.3125 "/></g></g></g><g fill="#000000" fill-opacity="1"><g transform="translate(559.382889, 365.928847)"><g><path d="M 2.4375 0 L 2.4375 -0.625 C 3.164062 -0.84375 3.664062 -1.316406 3.9375 -2.046875 C 4.207031 -2.773438 4.34375 -4.113281 4.34375 -6.0625 L 4.34375 -27.328125 C 4.34375 -29.304688 4.207031 -30.648438 3.9375 -31.359375 C 3.664062 -32.078125 3.164062 -32.546875 2.4375 -32.765625 L 2.4375 -33.390625 L 10.15625 -33.390625 L 10.15625 -32.765625 C 9.425781 -32.546875 8.925781 -32.078125 8.65625 -31.359375 C 8.382812 -30.648438 8.25 -29.304688 8.25 -27.328125 L 8.25 -2.90625 C 8.25 -1.476562 8.96875 -0.765625 10.40625 -0.765625 L 16.078125 -0.765625 C 18.367188 -0.765625 20.125 -1.101562 21.34375 -1.78125 C 22.570312 -2.46875 23.597656 -3.703125 24.421875 -5.484375 L 24.953125 -5.390625 L 24.609375 0 Z M 2.4375 0 "/></g></g></g><g fill="#000000" fill-opacity="1"><g transform="translate(585.285103, 365.928847)"><g/></g></g><g fill="#000000" fill-opacity="1"><g transform="translate(34.40775, 453.308483)"><g><path d="M 2.4375 0 L 2.4375 -0.625 C 3.164062 -0.84375 3.664062 -1.316406 3.9375 -2.046875 C 4.207031 -2.773438 4.34375 -4.113281 4.34375 -6.0625 L 4.34375 -27.328125 C 4.34375 -29.304688 4.207031 -30.648438 3.9375 -31.359375 C 3.664062 -32.078125 3.164062 -32.546875 2.4375 -32.765625 L 2.4375 -33.390625 L 13.59375 -33.390625 C 17.28125 -33.390625 19.925781 -32.820312 21.53125 -31.6875 C 23.144531 -30.5625 23.953125 -29.03125 23.953125 -27.09375 C 23.953125 -25.46875 23.378906 -23.988281 22.234375 -22.65625 C 21.085938 -21.320312 19.144531 -20.398438 16.40625 -19.890625 C 19.019531 -19.765625 21.148438 -19.285156 22.796875 -18.453125 C 24.453125 -17.628906 25.675781 -16.566406 26.46875 -15.265625 C 27.269531 -13.960938 27.671875 -12.53125 27.671875 -10.96875 C 27.703125 -9.632812 27.445312 -8.316406 26.90625 -7.015625 C 26.363281 -5.710938 25.488281 -4.535156 24.28125 -3.484375 C 23.070312 -2.429688 21.472656 -1.585938 19.484375 -0.953125 C 17.492188 -0.316406 15.054688 0 12.171875 0 Z M 8.25 -4.859375 C 8.25 -3.148438 8.40625 -2.03125 8.71875 -1.5 C 9.039062 -0.976562 9.710938 -0.71875 10.734375 -0.71875 L 12.59375 -0.71875 C 15.195312 -0.71875 17.28125 -1.101562 18.84375 -1.875 C 20.40625 -2.65625 21.539062 -3.726562 22.25 -5.09375 C 22.96875 -6.46875 23.328125 -8.03125 23.328125 -9.78125 C 23.328125 -11.625 22.976562 -13.253906 22.28125 -14.671875 C 21.582031 -16.085938 20.476562 -17.207031 18.96875 -18.03125 C 17.457031 -18.851562 15.507812 -19.265625 13.125 -19.265625 L 8.25 -19.265625 Z M 8.25 -19.984375 L 12.6875 -19.984375 C 15.039062 -19.984375 16.78125 -20.585938 17.90625 -21.796875 C 19.039062 -23.003906 19.609375 -24.484375 19.609375 -26.234375 C 19.609375 -28.203125 18.929688 -29.765625 17.578125 -30.921875 C 16.222656 -32.085938 14.320312 -32.671875 11.875 -32.671875 L 8.25 -32.671875 Z M 8.25 -19.984375 "/></g></g></g><g fill="#000000" fill-opacity="1"><g transform="translate(63.601323, 453.308483)"><g><path d="M 13.015625 0.484375 C 11.710938 0.484375 10.394531 0.242188 9.0625 -0.234375 C 7.726562 -0.710938 6.503906 -1.4375 5.390625 -2.40625 C 4.273438 -3.375 3.382812 -4.585938 2.71875 -6.046875 C 2.050781 -7.515625 1.71875 -9.234375 1.71875 -11.203125 C 1.71875 -13.816406 2.296875 -16.09375 3.453125 -18.03125 C 4.617188 -19.96875 6.15625 -21.476562 8.0625 -22.5625 C 9.96875 -23.644531 12.035156 -24.1875 14.265625 -24.1875 C 16.265625 -24.1875 17.972656 -23.796875 19.390625 -23.015625 C 20.804688 -22.234375 21.898438 -21.207031 22.671875 -19.9375 C 23.453125 -18.664062 23.863281 -17.265625 23.90625 -15.734375 L 5.25 -15.734375 C 5.15625 -15.035156 5.109375 -14.304688 5.109375 -13.546875 C 5.109375 -11.378906 5.523438 -9.460938 6.359375 -7.796875 C 7.203125 -6.128906 8.394531 -4.832031 9.9375 -3.90625 C 11.488281 -2.988281 13.296875 -2.53125 15.359375 -2.53125 C 17.203125 -2.53125 18.804688 -2.910156 20.171875 -3.671875 C 21.546875 -4.429688 22.769531 -5.429688 23.84375 -6.671875 L 24.28125 -6.25 C 23.488281 -5.132812 22.535156 -4.0625 21.421875 -3.03125 C 20.304688 -2 19.054688 -1.15625 17.671875 -0.5 C 16.285156 0.15625 14.734375 0.484375 13.015625 0.484375 Z M 5.390625 -16.359375 L 20.078125 -16.359375 C 19.921875 -17.441406 19.53125 -18.515625 18.90625 -19.578125 C 18.289062 -20.648438 17.46875 -21.539062 16.4375 -22.25 C 15.40625 -22.96875 14.15625 -23.328125 12.6875 -23.328125 C 10.65625 -23.359375 9.023438 -22.707031 7.796875 -21.375 C 6.578125 -20.039062 5.773438 -18.367188 5.390625 -16.359375 Z M 5.390625 -16.359375 "/></g></g></g><g fill="#000000" fill-opacity="1"><g transform="translate(89.217258, 453.308483)"><g><path d="M 13.015625 0.484375 C 11.171875 0.484375 9.382812 0.046875 7.65625 -0.828125 C 5.925781 -1.703125 4.503906 -3.015625 3.390625 -4.765625 C 2.273438 -6.515625 1.71875 -8.660156 1.71875 -11.203125 C 1.71875 -13.722656 2.3125 -15.957031 3.5 -17.90625 C 4.695312 -19.863281 6.28125 -21.398438 8.25 -22.515625 C 10.21875 -23.628906 12.363281 -24.1875 14.6875 -24.1875 C 16.21875 -24.1875 17.59375 -24.054688 18.8125 -23.796875 C 20.039062 -23.546875 21.007812 -23.226562 21.71875 -22.84375 C 22.4375 -22.46875 22.796875 -22.054688 22.796875 -21.609375 C 22.796875 -21.066406 22.484375 -20.5 21.859375 -19.90625 C 21.242188 -19.320312 20.554688 -19.03125 19.796875 -19.03125 C 18.679688 -19.03125 16.265625 -20.492188 12.546875 -23.421875 C 10.316406 -23.035156 8.519531 -21.9375 7.15625 -20.125 C 5.789062 -18.3125 5.109375 -16.117188 5.109375 -13.546875 C 5.109375 -11.378906 5.523438 -9.460938 6.359375 -7.796875 C 7.203125 -6.128906 8.394531 -4.832031 9.9375 -3.90625 C 11.488281 -2.988281 13.296875 -2.53125 15.359375 -2.53125 C 17.203125 -2.53125 18.804688 -2.910156 20.171875 -3.671875 C 21.546875 -4.429688 22.769531 -5.429688 23.84375 -6.671875 L 24.28125 -6.25 C 23.488281 -5.132812 22.535156 -4.0625 21.421875 -3.03125 C 20.304688 -2 19.054688 -1.15625 17.671875 -0.5 C 16.285156 0.15625 14.734375 0.484375 13.015625 0.484375 Z M 13.015625 0.484375 "/></g></g></g><g fill="#000000" fill-opacity="1"><g transform="translate(114.451575, 453.308483)"><g><path d="M 19.984375 0 C 19.035156 0 18.5625 -0.476562 18.5625 -1.4375 L 18.5625 -10.015625 C 18.082031 -8.078125 17.332031 -6.3125 16.3125 -4.71875 C 15.289062 -3.132812 14.101562 -1.867188 12.75 -0.921875 C 11.40625 0.015625 9.9375 0.484375 8.34375 0.484375 C 7.164062 0.484375 6.066406 0.242188 5.046875 -0.234375 C 4.035156 -0.710938 3.21875 -1.410156 2.59375 -2.328125 C 1.976562 -3.253906 1.671875 -4.398438 1.671875 -5.765625 C 1.671875 -7.421875 2.160156 -8.773438 3.140625 -9.828125 C 4.128906 -10.878906 5.441406 -11.738281 7.078125 -12.40625 C 8.722656 -13.070312 10.484375 -13.660156 12.359375 -14.171875 L 18.5625 -15.84375 C 18.425781 -18.15625 17.785156 -19.859375 16.640625 -20.953125 C 15.503906 -22.054688 13.914062 -22.609375 11.875 -22.609375 C 10.445312 -22.609375 9.054688 -22.265625 7.703125 -21.578125 C 6.347656 -20.898438 5.066406 -19.828125 3.859375 -18.359375 L 3.4375 -18.75 C 4.800781 -20.4375 6.347656 -21.765625 8.078125 -22.734375 C 9.816406 -23.703125 11.71875 -24.1875 13.78125 -24.1875 C 16.675781 -24.1875 18.804688 -23.429688 20.171875 -21.921875 C 21.546875 -20.410156 22.234375 -18.300781 22.234375 -15.59375 L 22.234375 -6.0625 C 22.234375 -4.113281 22.367188 -2.773438 22.640625 -2.046875 C 22.910156 -1.316406 23.410156 -0.84375 24.140625 -0.625 L 24.140625 0 Z M 5.25 -7.109375 C 5.25 -5.546875 5.71875 -4.359375 6.65625 -3.546875 C 7.59375 -2.742188 8.742188 -2.34375 10.109375 -2.34375 C 11.378906 -2.34375 12.53125 -2.695312 13.5625 -3.40625 C 14.601562 -4.125 15.488281 -5.054688 16.21875 -6.203125 C 16.945312 -7.347656 17.519531 -8.585938 17.9375 -9.921875 C 18.351562 -11.253906 18.5625 -12.539062 18.5625 -13.78125 L 18.5625 -15.21875 L 12.546875 -13.59375 C 11.367188 -13.28125 10.210938 -12.859375 9.078125 -12.328125 C 7.953125 -11.804688 7.03125 -11.128906 6.3125 -10.296875 C 5.601562 -9.472656 5.25 -8.410156 5.25 -7.109375 Z M 5.25 -7.109375 "/></g></g></g><g fill="#000000" fill-opacity="1"><g transform="translate(139.733599, 453.308483)"><g><path d="M 10.40625 0.484375 C 7.882812 0.484375 6.035156 -0.28125 4.859375 -1.8125 C 3.679688 -3.34375 3.09375 -5.472656 3.09375 -8.203125 L 3.09375 -17.03125 C 3.09375 -18.144531 3.019531 -18.976562 2.875 -19.53125 C 2.738281 -20.09375 2.535156 -20.5 2.265625 -20.75 C 1.992188 -21 1.632812 -21.222656 1.1875 -21.421875 L 1.1875 -21.9375 L 6.390625 -24.234375 L 6.828125 -23.90625 L 6.828125 -9.0625 C 6.828125 -6.363281 7.238281 -4.375 8.0625 -3.09375 C 8.882812 -1.820312 10.253906 -1.1875 12.171875 -1.1875 C 13.566406 -1.1875 14.898438 -1.578125 16.171875 -2.359375 C 17.441406 -3.140625 18.617188 -4.101562 19.703125 -5.25 L 19.703125 -17.03125 C 19.703125 -18.144531 19.628906 -18.976562 19.484375 -19.53125 C 19.335938 -20.09375 19.128906 -20.5 18.859375 -20.75 C 18.597656 -21 18.242188 -21.222656 17.796875 -21.421875 L 17.796875 -21.9375 L 23 -24.234375 L 23.421875 -23.90625 L 23.421875 -6.0625 C 23.421875 -4.113281 23.554688 -2.773438 23.828125 -2.046875 C 24.097656 -1.316406 24.597656 -0.84375 25.328125 -0.625 L 25.328125 0 L 21.28125 0 C 20.769531 0 20.378906 -0.140625 20.109375 -0.421875 C 19.835938 -0.710938 19.703125 -1.207031 19.703125 -1.90625 L 19.703125 -4.34375 C 18.492188 -3.070312 17.085938 -1.945312 15.484375 -0.96875 C 13.878906 0 12.1875 0.484375 10.40625 0.484375 Z M 10.40625 0.484375 "/></g></g></g><g fill="#000000" fill-opacity="1"><g transform="translate(166.732887, 453.308483)"><g><path d="M 10.78125 0.421875 C 8.875 0.421875 7.148438 0.1875 5.609375 -0.28125 C 4.066406 -0.757812 2.894531 -1.253906 2.09375 -1.765625 L 1.671875 -7.53125 L 2.09375 -7.625 C 3.113281 -5.375 4.453125 -3.601562 6.109375 -2.3125 C 7.765625 -1.019531 9.671875 -0.359375 11.828125 -0.328125 C 13.328125 -0.328125 14.5625 -0.734375 15.53125 -1.546875 C 16.5 -2.359375 16.984375 -3.429688 16.984375 -4.765625 C 16.984375 -5.910156 16.65625 -6.832031 16 -7.53125 C 15.351562 -8.238281 14.492188 -8.8125 13.421875 -9.25 C 12.359375 -9.695312 11.207031 -10.113281 9.96875 -10.5 C 8.476562 -10.96875 7.144531 -11.460938 5.96875 -11.984375 C 4.789062 -12.515625 3.863281 -13.207031 3.1875 -14.0625 C 2.519531 -14.925781 2.1875 -16.070312 2.1875 -17.5 C 2.1875 -19.382812 2.941406 -20.96875 4.453125 -22.25 C 5.960938 -23.539062 8.101562 -24.1875 10.875 -24.1875 C 12.4375 -24.1875 13.875 -24.050781 15.1875 -23.78125 C 16.507812 -23.507812 17.535156 -23.210938 18.265625 -22.890625 L 18.46875 -18.03125 L 17.984375 -17.9375 C 17.222656 -19.65625 16.125 -21.019531 14.6875 -22.03125 C 13.257812 -23.050781 11.703125 -23.5625 10.015625 -23.5625 C 8.390625 -23.5625 7.09375 -23.195312 6.125 -22.46875 C 5.15625 -21.738281 4.671875 -20.769531 4.671875 -19.5625 C 4.671875 -18.570312 4.976562 -17.742188 5.59375 -17.078125 C 6.21875 -16.410156 7.046875 -15.84375 8.078125 -15.375 C 9.117188 -14.914062 10.257812 -14.484375 11.5 -14.078125 C 12.414062 -13.785156 13.34375 -13.472656 14.28125 -13.140625 C 15.21875 -12.804688 16.078125 -12.390625 16.859375 -11.890625 C 17.640625 -11.398438 18.273438 -10.765625 18.765625 -9.984375 C 19.265625 -9.210938 19.515625 -8.222656 19.515625 -7.015625 C 19.515625 -5.679688 19.1875 -4.445312 18.53125 -3.3125 C 17.882812 -2.1875 16.90625 -1.289062 15.59375 -0.625 C 14.289062 0.0390625 12.6875 0.390625 10.78125 0.421875 Z M 10.78125 0.421875 "/></g></g></g><g fill="#000000" fill-opacity="1"><g transform="translate(187.960241, 453.308483)"><g><path d="M 13.015625 0.484375 C 11.710938 0.484375 10.394531 0.242188 9.0625 -0.234375 C 7.726562 -0.710938 6.503906 -1.4375 5.390625 -2.40625 C 4.273438 -3.375 3.382812 -4.585938 2.71875 -6.046875 C 2.050781 -7.515625 1.71875 -9.234375 1.71875 -11.203125 C 1.71875 -13.816406 2.296875 -16.09375 3.453125 -18.03125 C 4.617188 -19.96875 6.15625 -21.476562 8.0625 -22.5625 C 9.96875 -23.644531 12.035156 -24.1875 14.265625 -24.1875 C 16.265625 -24.1875 17.972656 -23.796875 19.390625 -23.015625 C 20.804688 -22.234375 21.898438 -21.207031 22.671875 -19.9375 C 23.453125 -18.664062 23.863281 -17.265625 23.90625 -15.734375 L 5.25 -15.734375 C 5.15625 -15.035156 5.109375 -14.304688 5.109375 -13.546875 C 5.109375 -11.378906 5.523438 -9.460938 6.359375 -7.796875 C 7.203125 -6.128906 8.394531 -4.832031 9.9375 -3.90625 C 11.488281 -2.988281 13.296875 -2.53125 15.359375 -2.53125 C 17.203125 -2.53125 18.804688 -2.910156 20.171875 -3.671875 C 21.546875 -4.429688 22.769531 -5.429688 23.84375 -6.671875 L 24.28125 -6.25 C 23.488281 -5.132812 22.535156 -4.0625 21.421875 -3.03125 C 20.304688 -2 19.054688 -1.15625 17.671875 -0.5 C 16.285156 0.15625 14.734375 0.484375 13.015625 0.484375 Z M 5.390625 -16.359375 L 20.078125 -16.359375 C 19.921875 -17.441406 19.53125 -18.515625 18.90625 -19.578125 C 18.289062 -20.648438 17.46875 -21.539062 16.4375 -22.25 C 15.40625 -22.96875 14.15625 -23.328125 12.6875 -23.328125 C 10.65625 -23.359375 9.023438 -22.707031 7.796875 -21.375 C 6.578125 -20.039062 5.773438 -18.367188 5.390625 -16.359375 Z M 5.390625 -16.359375 "/></g></g></g><g fill="#000000" fill-opacity="1"><g transform="translate(213.576176, 453.308483)"><g/></g></g><g fill="#239098" fill-opacity="1"><g transform="translate(223.598559, 453.308483)"><g><path d="M 2.4375 0 L 2.4375 -0.625 C 3.164062 -0.84375 3.664062 -1.316406 3.9375 -2.046875 C 4.207031 -2.773438 4.34375 -4.113281 4.34375 -6.0625 L 4.34375 -27.328125 C 4.34375 -29.304688 4.207031 -30.648438 3.9375 -31.359375 C 3.664062 -32.078125 3.164062 -32.546875 2.4375 -32.765625 L 2.4375 -33.390625 L 10.15625 -33.390625 L 10.15625 -32.765625 C 9.425781 -32.546875 8.925781 -32.078125 8.65625 -31.359375 C 8.382812 -30.648438 8.25 -29.304688 8.25 -27.328125 L 8.25 -18.078125 L 26.421875 -18.078125 L 26.421875 -27.328125 C 26.421875 -29.304688 26.285156 -30.648438 26.015625 -31.359375 C 25.742188 -32.078125 25.242188 -32.546875 24.515625 -32.765625 L 24.515625 -33.390625 L 32.25 -33.390625 L 32.25 -32.765625 C 31.519531 -32.546875 31.019531 -32.078125 30.75 -31.359375 C 30.476562 -30.648438 30.34375 -29.304688 30.34375 -27.328125 L 30.34375 -6.0625 C 30.34375 -4.113281 30.476562 -2.773438 30.75 -2.046875 C 31.019531 -1.316406 31.519531 -0.84375 32.25 -0.625 L 32.25 0 L 24.515625 0 L 24.515625 -0.625 C 25.242188 -0.84375 25.742188 -1.316406 26.015625 -2.046875 C 26.285156 -2.773438 26.421875 -4.113281 26.421875 -6.0625 L 26.421875 -17.3125 L 8.25 -17.3125 L 8.25 -6.0625 C 8.25 -4.113281 8.382812 -2.773438 8.65625 -2.046875 C 8.925781 -1.316406 9.425781 -0.84375 10.15625 -0.625 L 10.15625 0 Z M 2.4375 0 "/></g></g></g><g fill="#239098" fill-opacity="1"><g transform="translate(258.230156, 453.308483)"><g><path d="M 10.40625 0.484375 C 7.882812 0.484375 6.035156 -0.28125 4.859375 -1.8125 C 3.679688 -3.34375 3.09375 -5.472656 3.09375 -8.203125 L 3.09375 -17.03125 C 3.09375 -18.144531 3.019531 -18.976562 2.875 -19.53125 C 2.738281 -20.09375 2.535156 -20.5 2.265625 -20.75 C 1.992188 -21 1.632812 -21.222656 1.1875 -21.421875 L 1.1875 -21.9375 L 6.390625 -24.234375 L 6.828125 -23.90625 L 6.828125 -9.0625 C 6.828125 -6.363281 7.238281 -4.375 8.0625 -3.09375 C 8.882812 -1.820312 10.253906 -1.1875 12.171875 -1.1875 C 13.566406 -1.1875 14.898438 -1.578125 16.171875 -2.359375 C 17.441406 -3.140625 18.617188 -4.101562 19.703125 -5.25 L 19.703125 -17.03125 C 19.703125 -18.144531 19.628906 -18.976562 19.484375 -19.53125 C 19.335938 -20.09375 19.128906 -20.5 18.859375 -20.75 C 18.597656 -21 18.242188 -21.222656 17.796875 -21.421875 L 17.796875 -21.9375 L 23 -24.234375 L 23.421875 -23.90625 L 23.421875 -6.0625 C 23.421875 -4.113281 23.554688 -2.773438 23.828125 -2.046875 C 24.097656 -1.316406 24.597656 -0.84375 25.328125 -0.625 L 25.328125 0 L 21.28125 0 C 20.769531 0 20.378906 -0.140625 20.109375 -0.421875 C 19.835938 -0.710938 19.703125 -1.207031 19.703125 -1.90625 L 19.703125 -4.34375 C 18.492188 -3.070312 17.085938 -1.945312 15.484375 -0.96875 C 13.878906 0 12.1875 0.484375 10.40625 0.484375 Z M 10.40625 0.484375 "/></g></g></g><g fill="#239098" fill-opacity="1"><g transform="translate(285.229444, 453.308483)"><g><path d="M 1.53125 0 L 1.53125 -0.625 C 2.257812 -0.84375 2.757812 -1.316406 3.03125 -2.046875 C 3.300781 -2.773438 3.4375 -4.113281 3.4375 -6.0625 L 3.4375 -17.03125 C 3.4375 -18.144531 3.363281 -18.976562 3.21875 -19.53125 C 3.070312 -20.09375 2.863281 -20.5 2.59375 -20.75 C 2.320312 -21 1.96875 -21.222656 1.53125 -21.421875 L 1.53125 -21.9375 L 6.71875 -24.234375 L 7.15625 -23.90625 L 7.15625 -19.84375 C 8.582031 -20.988281 10.15625 -22 11.875 -22.875 C 13.59375 -23.75 15.3125 -24.1875 17.03125 -24.1875 C 20.625 -24.1875 22.832031 -22.691406 23.65625 -19.703125 C 25.09375 -20.847656 26.691406 -21.878906 28.453125 -22.796875 C 30.222656 -23.722656 32 -24.1875 33.78125 -24.1875 C 36.09375 -24.1875 37.835938 -23.539062 39.015625 -22.25 C 40.191406 -20.96875 40.78125 -18.972656 40.78125 -16.265625 L 40.78125 -6.0625 C 40.78125 -4.113281 40.921875 -2.773438 41.203125 -2.046875 C 41.492188 -1.316406 41.988281 -0.84375 42.6875 -0.625 L 42.6875 0 L 35.15625 0 L 35.15625 -0.625 C 35.882812 -0.84375 36.382812 -1.316406 36.65625 -2.046875 C 36.925781 -2.773438 37.0625 -4.113281 37.0625 -6.0625 L 37.0625 -15.40625 C 37.0625 -20.207031 35.25 -22.609375 31.625 -22.609375 C 30.257812 -22.609375 28.941406 -22.273438 27.671875 -21.609375 C 26.398438 -20.941406 25.109375 -20.097656 23.796875 -19.078125 C 23.992188 -18.285156 24.09375 -17.347656 24.09375 -16.265625 L 24.09375 -6.0625 C 24.09375 -4.113281 24.226562 -2.773438 24.5 -2.046875 C 24.769531 -1.316406 25.269531 -0.84375 26 -0.625 L 26 0 L 18.46875 0 L 18.46875 -0.625 C 19.195312 -0.84375 19.695312 -1.316406 19.96875 -2.046875 C 20.238281 -2.773438 20.375 -4.113281 20.375 -6.0625 L 20.375 -15.40625 C 20.375 -20.207031 18.5625 -22.609375 14.9375 -22.609375 C 13.5625 -22.609375 12.242188 -22.28125 10.984375 -21.625 C 9.734375 -20.976562 8.457031 -20.160156 7.15625 -19.171875 L 7.15625 -6.0625 C 7.15625 -4.113281 7.289062 -2.773438 7.5625 -2.046875 C 7.832031 -1.316406 8.332031 -0.84375 9.0625 -0.625 L 9.0625 0 Z M 1.53125 0 "/></g></g></g><g fill="#239098" fill-opacity="1"><g transform="translate(328.924409, 453.308483)"><g><path d="M 19.984375 0 C 19.035156 0 18.5625 -0.476562 18.5625 -1.4375 L 18.5625 -10.015625 C 18.082031 -8.078125 17.332031 -6.3125 16.3125 -4.71875 C 15.289062 -3.132812 14.101562 -1.867188 12.75 -0.921875 C 11.40625 0.015625 9.9375 0.484375 8.34375 0.484375 C 7.164062 0.484375 6.066406 0.242188 5.046875 -0.234375 C 4.035156 -0.710938 3.21875 -1.410156 2.59375 -2.328125 C 1.976562 -3.253906 1.671875 -4.398438 1.671875 -5.765625 C 1.671875 -7.421875 2.160156 -8.773438 3.140625 -9.828125 C 4.128906 -10.878906 5.441406 -11.738281 7.078125 -12.40625 C 8.722656 -13.070312 10.484375 -13.660156 12.359375 -14.171875 L 18.5625 -15.84375 C 18.425781 -18.15625 17.785156 -19.859375 16.640625 -20.953125 C 15.503906 -22.054688 13.914062 -22.609375 11.875 -22.609375 C 10.445312 -22.609375 9.054688 -22.265625 7.703125 -21.578125 C 6.347656 -20.898438 5.066406 -19.828125 3.859375 -18.359375 L 3.4375 -18.75 C 4.800781 -20.4375 6.347656 -21.765625 8.078125 -22.734375 C 9.816406 -23.703125 11.71875 -24.1875 13.78125 -24.1875 C 16.675781 -24.1875 18.804688 -23.429688 20.171875 -21.921875 C 21.546875 -20.410156 22.234375 -18.300781 22.234375 -15.59375 L 22.234375 -6.0625 C 22.234375 -4.113281 22.367188 -2.773438 22.640625 -2.046875 C 22.910156 -1.316406 23.410156 -0.84375 24.140625 -0.625 L 24.140625 0 Z M 5.25 -7.109375 C 5.25 -5.546875 5.71875 -4.359375 6.65625 -3.546875 C 7.59375 -2.742188 8.742188 -2.34375 10.109375 -2.34375 C 11.378906 -2.34375 12.53125 -2.695312 13.5625 -3.40625 C 14.601562 -4.125 15.488281 -5.054688 16.21875 -6.203125 C 16.945312 -7.347656 17.519531 -8.585938 17.9375 -9.921875 C 18.351562 -11.253906 18.5625 -12.539062 18.5625 -13.78125 L 18.5625 -15.21875 L 12.546875 -13.59375 C 11.367188 -13.28125 10.210938 -12.859375 9.078125 -12.328125 C 7.953125 -11.804688 7.03125 -11.128906 6.3125 -10.296875 C 5.601562 -9.472656 5.25 -8.410156 5.25 -7.109375 Z M 5.25 -7.109375 "/></g></g></g><g fill="#239098" fill-opacity="1"><g transform="translate(354.206432, 453.308483)"><g><path d="M 1.53125 0 L 1.53125 -0.625 C 2.257812 -0.84375 2.757812 -1.316406 3.03125 -2.046875 C 3.300781 -2.773438 3.4375 -4.113281 3.4375 -6.0625 L 3.4375 -17.03125 C 3.4375 -18.144531 3.367188 -18.976562 3.234375 -19.53125 C 3.109375 -20.09375 2.898438 -20.5 2.609375 -20.75 C 2.328125 -21 1.96875 -21.222656 1.53125 -21.421875 L 1.53125 -21.9375 L 6.78125 -24.234375 L 7.15625 -23.90625 L 7.15625 -19.796875 C 8.550781 -20.910156 10.125 -21.921875 11.875 -22.828125 C 13.625 -23.734375 15.421875 -24.1875 17.265625 -24.1875 C 19.617188 -24.1875 21.460938 -23.5 22.796875 -22.125 C 24.140625 -20.757812 24.8125 -18.679688 24.8125 -15.890625 L 24.8125 -6.0625 C 24.8125 -4.113281 24.941406 -2.773438 25.203125 -2.046875 C 25.472656 -1.316406 25.976562 -0.84375 26.71875 -0.625 L 26.71875 0 L 19.171875 0 L 19.171875 -0.625 C 19.910156 -0.84375 20.410156 -1.316406 20.671875 -2.046875 C 20.941406 -2.773438 21.078125 -4.113281 21.078125 -6.0625 L 21.078125 -14.9375 C 21.078125 -17.414062 20.550781 -19.3125 19.5 -20.625 C 18.457031 -21.945312 16.882812 -22.609375 14.78125 -22.609375 C 13.476562 -22.609375 12.179688 -22.265625 10.890625 -21.578125 C 9.609375 -20.898438 8.363281 -20.050781 7.15625 -19.03125 L 7.15625 -6.0625 C 7.15625 -4.113281 7.296875 -2.773438 7.578125 -2.046875 C 7.867188 -1.316406 8.363281 -0.84375 9.0625 -0.625 L 9.0625 0 Z M 1.53125 0 "/></g></g></g><g fill="#239098" fill-opacity="1"><g transform="translate(382.069961, 453.308483)"><g/></g></g><g fill="#239098" fill-opacity="1"><g transform="translate(392.087369, 453.308483)"><g/></g></g><g fill="#000000" fill-opacity="1"><g transform="translate(402.106434, 453.308483)"><g><path d="M 2.390625 0 L 2.390625 -0.625 C 3.117188 -0.84375 3.617188 -1.316406 3.890625 -2.046875 C 4.160156 -2.773438 4.296875 -4.113281 4.296875 -6.0625 L 4.296875 -25.421875 C 4.296875 -27.234375 4.179688 -28.640625 3.953125 -29.640625 C 3.734375 -30.648438 3.410156 -31.375 2.984375 -31.8125 C 2.554688 -32.257812 2.023438 -32.578125 1.390625 -32.765625 L 1.390625 -33.390625 L 7.15625 -33.390625 L 19.609375 -12.828125 L 31.8125 -33.390625 L 37.203125 -33.390625 L 37.203125 -32.765625 C 36.566406 -32.578125 36.035156 -32.257812 35.609375 -31.8125 C 35.179688 -31.375 34.851562 -30.648438 34.625 -29.640625 C 34.40625 -28.640625 34.296875 -27.234375 34.296875 -25.421875 L 34.296875 -6.0625 C 34.296875 -4.113281 34.429688 -2.773438 34.703125 -2.046875 C 34.972656 -1.316406 35.472656 -0.84375 36.203125 -0.625 L 36.203125 0 L 28.484375 0 L 28.484375 -0.625 C 29.210938 -0.84375 29.710938 -1.316406 29.984375 -2.046875 C 30.253906 -2.773438 30.390625 -4.113281 30.390625 -6.0625 L 30.390625 -29.53125 L 18.265625 -9.0625 L 17.359375 -9.0625 L 5.15625 -29.140625 L 5.15625 -7.96875 C 5.15625 -6.15625 5.28125 -4.753906 5.53125 -3.765625 C 5.789062 -2.785156 6.15625 -2.0625 6.625 -1.59375 C 7.101562 -1.132812 7.691406 -0.8125 8.390625 -0.625 L 8.390625 0 Z M 2.390625 0 "/></g></g></g><g fill="#000000" fill-opacity="1"><g transform="translate(441.746729, 453.308483)"><g><path d="M 19.984375 0 C 19.035156 0 18.5625 -0.476562 18.5625 -1.4375 L 18.5625 -10.015625 C 18.082031 -8.078125 17.332031 -6.3125 16.3125 -4.71875 C 15.289062 -3.132812 14.101562 -1.867188 12.75 -0.921875 C 11.40625 0.015625 9.9375 0.484375 8.34375 0.484375 C 7.164062 0.484375 6.066406 0.242188 5.046875 -0.234375 C 4.035156 -0.710938 3.21875 -1.410156 2.59375 -2.328125 C 1.976562 -3.253906 1.671875 -4.398438 1.671875 -5.765625 C 1.671875 -7.421875 2.160156 -8.773438 3.140625 -9.828125 C 4.128906 -10.878906 5.441406 -11.738281 7.078125 -12.40625 C 8.722656 -13.070312 10.484375 -13.660156 12.359375 -14.171875 L 18.5625 -15.84375 C 18.425781 -18.15625 17.785156 -19.859375 16.640625 -20.953125 C 15.503906 -22.054688 13.914062 -22.609375 11.875 -22.609375 C 10.445312 -22.609375 9.054688 -22.265625 7.703125 -21.578125 C 6.347656 -20.898438 5.066406 -19.828125 3.859375 -18.359375 L 3.4375 -18.75 C 4.800781 -20.4375 6.347656 -21.765625 8.078125 -22.734375 C 9.816406 -23.703125 11.71875 -24.1875 13.78125 -24.1875 C 16.675781 -24.1875 18.804688 -23.429688 20.171875 -21.921875 C 21.546875 -20.410156 22.234375 -18.300781 22.234375 -15.59375 L 22.234375 -6.0625 C 22.234375 -4.113281 22.367188 -2.773438 22.640625 -2.046875 C 22.910156 -1.316406 23.410156 -0.84375 24.140625 -0.625 L 24.140625 0 Z M 5.25 -7.109375 C 5.25 -5.546875 5.71875 -4.359375 6.65625 -3.546875 C 7.59375 -2.742188 8.742188 -2.34375 10.109375 -2.34375 C 11.378906 -2.34375 12.53125 -2.695312 13.5625 -3.40625 C 14.601562 -4.125 15.488281 -5.054688 16.21875 -6.203125 C 16.945312 -7.347656 17.519531 -8.585938 17.9375 -9.921875 C 18.351562 -11.253906 18.5625 -12.539062 18.5625 -13.78125 L 18.5625 -15.21875 L 12.546875 -13.59375 C 11.367188 -13.28125 10.210938 -12.859375 9.078125 -12.328125 C 7.953125 -11.804688 7.03125 -11.128906 6.3125 -10.296875 C 5.601562 -9.472656 5.25 -8.410156 5.25 -7.109375 Z M 5.25 -7.109375 "/></g></g></g><g fill="#000000" fill-opacity="1"><g transform="translate(467.028753, 453.308483)"><g><path d="M 9.015625 0.484375 C 7.523438 0.484375 6.347656 -0.03125 5.484375 -1.0625 C 4.628906 -2.101562 4.203125 -3.863281 4.203125 -6.34375 L 4.203125 -23.1875 L 1.140625 -23.1875 L 1.140625 -23.84375 L 7.25 -29.71875 L 7.921875 -29.71875 L 7.921875 -23.84375 L 15.171875 -23.84375 L 14.9375 -23.1875 L 7.921875 -23.1875 L 7.921875 -6.34375 C 7.921875 -4.71875 8.226562 -3.5625 8.84375 -2.875 C 9.46875 -2.195312 10.289062 -1.859375 11.3125 -1.859375 C 11.976562 -1.859375 12.707031 -2.039062 13.5 -2.40625 C 14.289062 -2.769531 15.085938 -3.414062 15.890625 -4.34375 L 16.3125 -3.90625 C 15.289062 -2.726562 14.164062 -1.703125 12.9375 -0.828125 C 11.71875 0.046875 10.410156 0.484375 9.015625 0.484375 Z M 9.015625 0.484375 "/></g></g></g><g fill="#000000" fill-opacity="1"><g transform="translate(483.438211, 453.308483)"><g><path d="M 9.015625 0.484375 C 7.523438 0.484375 6.347656 -0.03125 5.484375 -1.0625 C 4.628906 -2.101562 4.203125 -3.863281 4.203125 -6.34375 L 4.203125 -23.1875 L 1.140625 -23.1875 L 1.140625 -23.84375 L 7.25 -29.71875 L 7.921875 -29.71875 L 7.921875 -23.84375 L 15.171875 -23.84375 L 14.9375 -23.1875 L 7.921875 -23.1875 L 7.921875 -6.34375 C 7.921875 -4.71875 8.226562 -3.5625 8.84375 -2.875 C 9.46875 -2.195312 10.289062 -1.859375 11.3125 -1.859375 C 11.976562 -1.859375 12.707031 -2.039062 13.5 -2.40625 C 14.289062 -2.769531 15.085938 -3.414062 15.890625 -4.34375 L 16.3125 -3.90625 C 15.289062 -2.726562 14.164062 -1.703125 12.9375 -0.828125 C 11.71875 0.046875 10.410156 0.484375 9.015625 0.484375 Z M 9.015625 0.484375 "/></g></g></g><g fill="#000000" fill-opacity="1"><g transform="translate(499.84767, 453.308483)"><g><path d="M 13.015625 0.484375 C 11.710938 0.484375 10.394531 0.242188 9.0625 -0.234375 C 7.726562 -0.710938 6.503906 -1.4375 5.390625 -2.40625 C 4.273438 -3.375 3.382812 -4.585938 2.71875 -6.046875 C 2.050781 -7.515625 1.71875 -9.234375 1.71875 -11.203125 C 1.71875 -13.816406 2.296875 -16.09375 3.453125 -18.03125 C 4.617188 -19.96875 6.15625 -21.476562 8.0625 -22.5625 C 9.96875 -23.644531 12.035156 -24.1875 14.265625 -24.1875 C 16.265625 -24.1875 17.972656 -23.796875 19.390625 -23.015625 C 20.804688 -22.234375 21.898438 -21.207031 22.671875 -19.9375 C 23.453125 -18.664062 23.863281 -17.265625 23.90625 -15.734375 L 5.25 -15.734375 C 5.15625 -15.035156 5.109375 -14.304688 5.109375 -13.546875 C 5.109375 -11.378906 5.523438 -9.460938 6.359375 -7.796875 C 7.203125 -6.128906 8.394531 -4.832031 9.9375 -3.90625 C 11.488281 -2.988281 13.296875 -2.53125 15.359375 -2.53125 C 17.203125 -2.53125 18.804688 -2.910156 20.171875 -3.671875 C 21.546875 -4.429688 22.769531 -5.429688 23.84375 -6.671875 L 24.28125 -6.25 C 23.488281 -5.132812 22.535156 -4.0625 21.421875 -3.03125 C 20.304688 -2 19.054688 -1.15625 17.671875 -0.5 C 16.285156 0.15625 14.734375 0.484375 13.015625 0.484375 Z M 5.390625 -16.359375 L 20.078125 -16.359375 C 19.921875 -17.441406 19.53125 -18.515625 18.90625 -19.578125 C 18.289062 -20.648438 17.46875 -21.539062 16.4375 -22.25 C 15.40625 -22.96875 14.15625 -23.328125 12.6875 -23.328125 C 10.65625 -23.359375 9.023438 -22.707031 7.796875 -21.375 C 6.578125 -20.039062 5.773438 -18.367188 5.390625 -16.359375 Z M 5.390625 -16.359375 "/></g></g></g><g fill="#000000" fill-opacity="1"><g transform="translate(525.463605, 453.308483)"><g><path d="M 1.53125 0 L 1.53125 -0.625 C 2.257812 -0.84375 2.757812 -1.316406 3.03125 -2.046875 C 3.300781 -2.773438 3.4375 -4.113281 3.4375 -6.0625 L 3.4375 -17.03125 C 3.4375 -18.144531 3.363281 -18.976562 3.21875 -19.53125 C 3.070312 -20.09375 2.863281 -20.5 2.59375 -20.75 C 2.320312 -21 1.96875 -21.222656 1.53125 -21.421875 L 1.53125 -21.9375 L 6.71875 -24.234375 L 7.15625 -23.90625 L 7.15625 -17.9375 C 7.539062 -18.851562 8.039062 -19.707031 8.65625 -20.5 C 9.28125 -21.300781 9.941406 -21.957031 10.640625 -22.46875 C 11.367188 -23.007812 12.171875 -23.429688 13.046875 -23.734375 C 13.921875 -24.035156 14.929688 -24.1875 16.078125 -24.1875 C 17.023438 -24.1875 17.773438 -24.070312 18.328125 -23.84375 C 18.890625 -23.625 19.171875 -23.304688 19.171875 -22.890625 C 19.171875 -22.390625 18.925781 -21.8125 18.4375 -21.15625 C 17.945312 -20.5 17.269531 -20.171875 16.40625 -20.171875 C 15.769531 -20.171875 14.96875 -20.289062 14 -20.53125 C 13.03125 -20.769531 11.847656 -21.097656 10.453125 -21.515625 C 10.003906 -21.191406 9.53125 -20.703125 9.03125 -20.046875 C 8.539062 -19.398438 8.128906 -18.679688 7.796875 -17.890625 C 7.460938 -17.097656 7.265625 -16.316406 7.203125 -15.546875 L 7.15625 -15.546875 L 7.15625 -6.0625 C 7.15625 -4.113281 7.289062 -2.773438 7.5625 -2.046875 C 7.832031 -1.316406 8.332031 -0.84375 9.0625 -0.625 L 9.0625 0 Z M 1.53125 0 "/></g></g></g><g fill="#000000" fill-opacity="1"><g transform="translate(545.498409, 453.308483)"><g><path d="M 10.78125 0.421875 C 8.875 0.421875 7.148438 0.1875 5.609375 -0.28125 C 4.066406 -0.757812 2.894531 -1.253906 2.09375 -1.765625 L 1.671875 -7.53125 L 2.09375 -7.625 C 3.113281 -5.375 4.453125 -3.601562 6.109375 -2.3125 C 7.765625 -1.019531 9.671875 -0.359375 11.828125 -0.328125 C 13.328125 -0.328125 14.5625 -0.734375 15.53125 -1.546875 C 16.5 -2.359375 16.984375 -3.429688 16.984375 -4.765625 C 16.984375 -5.910156 16.65625 -6.832031 16 -7.53125 C 15.351562 -8.238281 14.492188 -8.8125 13.421875 -9.25 C 12.359375 -9.695312 11.207031 -10.113281 9.96875 -10.5 C 8.476562 -10.96875 7.144531 -11.460938 5.96875 -11.984375 C 4.789062 -12.515625 3.863281 -13.207031 3.1875 -14.0625 C 2.519531 -14.925781 2.1875 -16.070312 2.1875 -17.5 C 2.1875 -19.382812 2.941406 -20.96875 4.453125 -22.25 C 5.960938 -23.539062 8.101562 -24.1875 10.875 -24.1875 C 12.4375 -24.1875 13.875 -24.050781 15.1875 -23.78125 C 16.507812 -23.507812 17.535156 -23.210938 18.265625 -22.890625 L 18.46875 -18.03125 L 17.984375 -17.9375 C 17.222656 -19.65625 16.125 -21.019531 14.6875 -22.03125 C 13.257812 -23.050781 11.703125 -23.5625 10.015625 -23.5625 C 8.390625 -23.5625 7.09375 -23.195312 6.125 -22.46875 C 5.15625 -21.738281 4.671875 -20.769531 4.671875 -19.5625 C 4.671875 -18.570312 4.976562 -17.742188 5.59375 -17.078125 C 6.21875 -16.410156 7.046875 -15.84375 8.078125 -15.375 C 9.117188 -14.914062 10.257812 -14.484375 11.5 -14.078125 C 12.414062 -13.785156 13.34375 -13.472656 14.28125 -13.140625 C 15.21875 -12.804688 16.078125 -12.390625 16.859375 -11.890625 C 17.640625 -11.398438 18.273438 -10.765625 18.765625 -9.984375 C 19.265625 -9.210938 19.515625 -8.222656 19.515625 -7.015625 C 19.515625 -5.679688 19.1875 -4.445312 18.53125 -3.3125 C 17.882812 -2.1875 16.90625 -1.289062 15.59375 -0.625 C 14.289062 0.0390625 12.6875 0.390625 10.78125 0.421875 Z M 10.78125 0.421875 "/></g></g></g><g fill="#000000" fill-opacity="1"><g transform="translate(566.733693, 453.308483)"><g/></g></g></svg>